<svg width="70" height="70" viewBox="0 0 70 70" fill="none" xmlns="http://www.w3.org/2000/svg">
<path d="M7.15789 23.1569C7.97833 22.3367 9.09093 21.8759 10.251 21.8759C11.4111 21.8759 12.5237 22.3367 13.3441 23.1569L35.0004 44.8131L56.6566 23.1569C57.4818 22.3599 58.5869 21.919 59.734 21.9289C60.8811 21.9389 61.9784 22.399 62.7896 23.2102C63.6008 24.0213 64.0609 25.1186 64.0708 26.2657C64.0808 27.4129 63.6398 28.518 62.8429 29.3431L38.0935 54.0925C37.2731 54.9127 36.1605 55.3734 35.0004 55.3734C33.8403 55.3734 32.7277 54.9127 31.9073 54.0925L7.15789 29.3431C6.33771 28.5227 5.87695 27.4101 5.87695 26.25C5.87695 25.0899 6.33771 23.9773 7.15789 23.1569Z" fill="white"/>
</svg>
