<svg width="22" height="22" viewBox="0 0 22 22" fill="none" xmlns="http://www.w3.org/2000/svg">
<path d="M2.24951 7.27787C2.50736 7.0201 2.85703 6.87529 3.22163 6.87529C3.58623 6.87529 3.9359 7.0201 4.19376 7.27787L11 14.0841L17.8063 7.27787C18.0656 7.0274 18.4129 6.88881 18.7734 6.89194C19.134 6.89508 19.4788 7.03968 19.7338 7.29462C19.9887 7.54956 20.1333 7.89442 20.1364 8.25494C20.1396 8.61546 20.001 8.96279 19.7505 9.22212L11.9721 17.0005C11.7143 17.2583 11.3646 17.4031 11 17.4031C10.6354 17.4031 10.2857 17.2583 10.0279 17.0005L2.24951 9.22212C1.99173 8.96427 1.84692 8.6146 1.84692 8.25C1.84692 7.8854 1.99173 7.53572 2.24951 7.27787V7.27787Z" fill="black"/>
</svg>
