<svg width="14" height="16" viewBox="0 0 14 16" fill="none" xmlns="http://www.w3.org/2000/svg">
<path d="M0.547699 13.8174C0.547699 14.5966 1.1799 15.2288 1.95912 15.2288H12.3096C13.0888 15.2288 13.721 14.5966 13.721 13.8174V5.81929H0.547699V13.8174ZM9.9572 8.05404C9.9572 7.85997 10.116 7.70119 10.3101 7.70119H11.4862C11.6803 7.70119 11.8391 7.85997 11.8391 8.05404V9.23023C11.8391 9.4243 11.6803 9.58309 11.4862 9.58309H10.3101C10.116 9.58309 9.9572 9.4243 9.9572 9.23023V8.05404ZM9.9572 11.8178C9.9572 11.6238 10.116 11.465 10.3101 11.465H11.4862C11.6803 11.465 11.8391 11.6238 11.8391 11.8178V12.994C11.8391 13.1881 11.6803 13.3469 11.4862 13.3469H10.3101C10.116 13.3469 9.9572 13.1881 9.9572 12.994V11.8178ZM6.1934 8.05404C6.1934 7.85997 6.35219 7.70119 6.54626 7.70119H7.72245C7.91652 7.70119 8.0753 7.85997 8.0753 8.05404V9.23023C8.0753 9.4243 7.91652 9.58309 7.72245 9.58309H6.54626C6.35219 9.58309 6.1934 9.4243 6.1934 9.23023V8.05404ZM6.1934 11.8178C6.1934 11.6238 6.35219 11.465 6.54626 11.465H7.72245C7.91652 11.465 8.0753 11.6238 8.0753 11.8178V12.994C8.0753 13.1881 7.91652 13.3469 7.72245 13.3469H6.54626C6.35219 13.3469 6.1934 13.1881 6.1934 12.994V11.8178ZM2.4296 8.05404C2.4296 7.85997 2.58839 7.70119 2.78246 7.70119H3.95864C4.15271 7.70119 4.3115 7.85997 4.3115 8.05404V9.23023C4.3115 9.4243 4.15271 9.58309 3.95864 9.58309H2.78246C2.58839 9.58309 2.4296 9.4243 2.4296 9.23023V8.05404ZM2.4296 11.8178C2.4296 11.6238 2.58839 11.465 2.78246 11.465H3.95864C4.15271 11.465 4.3115 11.6238 4.3115 11.8178V12.994C4.3115 13.1881 4.15271 13.3469 3.95864 13.3469H2.78246C2.58839 13.3469 2.4296 13.1881 2.4296 12.994V11.8178ZM12.3096 2.05548H10.8982V0.644059C10.8982 0.385298 10.6864 0.173584 10.4277 0.173584H9.48673C9.22797 0.173584 9.01625 0.385298 9.01625 0.644059V2.05548H5.25245V0.644059C5.25245 0.385298 5.04074 0.173584 4.78198 0.173584H3.84103C3.58226 0.173584 3.37055 0.385298 3.37055 0.644059V2.05548H1.95912C1.1799 2.05548 0.547699 2.68769 0.547699 3.46691V4.87833H13.721V3.46691C13.721 2.68769 13.0888 2.05548 12.3096 2.05548Z" fill="#6BA1B9"/>
</svg>
