<svg width="21" height="21" viewBox="0 0 21 21" fill="none" xmlns="http://www.w3.org/2000/svg">
<g clip-path="url(#clip0_12_2177)">
<path d="M4.01704 0.204102C1.99406 0.204102 0.365158 1.833 0.365158 3.85598V16.5522C0.365158 18.5752 1.99406 20.2041 4.01704 20.2041H10.8983V12.3854H8.8308V9.57036H10.8983V7.16536C10.8983 5.27586 12.1199 3.54098 14.9339 3.54098C16.0733 3.54098 16.9158 3.65036 16.9158 3.65036L16.8495 6.27912C16.8495 6.27912 15.9903 6.271 15.0527 6.271C14.0379 6.271 13.8752 6.73856 13.8752 7.51476V9.57038H16.9302L16.797 12.3854H13.8752V20.2041H16.7133C18.7363 20.2041 20.3652 18.5752 20.3652 16.5523V3.856C20.3652 1.83302 18.7363 0.204122 16.7133 0.204122H4.01702L4.01704 0.204102Z" fill="white"/>
</g>
<defs>
<clipPath id="clip0_12_2177">
<rect width="20" height="20" fill="white" transform="translate(0.365112 0.204102)"/>
</clipPath>
</defs>
</svg>
