<svg width="17" height="13" viewBox="0 0 17 13" fill="none" xmlns="http://www.w3.org/2000/svg">
<path d="M16.3651 11.4238V2.42383C16.3651 1.59383 15.7349 0.923828 14.9542 0.923828H1.77605C0.99533 0.923828 0.365112 1.59383 0.365112 2.42383V11.4238C0.365112 12.2538 0.99533 12.9238 1.77605 12.9238H14.9542C15.7349 12.9238 16.3651 12.2538 16.3651 11.4238ZM15.1329 2.31383C15.4433 2.64383 15.274 2.98383 15.1047 3.15383L11.2857 6.87383L14.9542 10.9338C15.0671 11.0738 15.1423 11.2938 15.0106 11.4438C14.8883 11.6038 14.6061 11.5938 14.4839 11.4938L10.3733 7.76383L8.36041 9.71383L6.35688 7.76383L2.24636 11.4938C2.12408 11.5938 1.84189 11.6038 1.71961 11.4438C1.58792 11.2938 1.66317 11.0738 1.77605 10.9338L5.44448 6.87383L1.62555 3.15383C1.45624 2.98383 1.28692 2.64383 1.59733 2.31383C1.90773 1.98383 2.22755 2.14383 2.49092 2.38383L8.36041 7.42383L14.2393 2.38383C14.5027 2.14383 14.8225 1.98383 15.1329 2.31383V2.31383Z" fill="white"/>
</svg>
