<svg width="120" height="120" viewBox="0 0 120 120" fill="none" xmlns="http://www.w3.org/2000/svg">
<g clip-path="url(#clip0_27_5868)">
<path fill-rule="evenodd" clip-rule="evenodd" d="M77.6539 46.095C78.0031 46.4433 78.2802 46.8571 78.4692 47.3127C78.6583 47.7683 78.7556 48.2567 78.7556 48.75C78.7556 49.2432 78.6583 49.7317 78.4692 50.1872C78.2802 50.6428 78.0031 51.0566 77.6539 51.405L55.1539 73.905C54.8055 74.2542 54.3917 74.5313 53.9361 74.7203C53.4805 74.9094 52.9921 75.0067 52.4989 75.0067C52.0056 75.0067 51.5172 74.9094 51.0616 74.7203C50.606 74.5313 50.1922 74.2542 49.8439 73.905L38.5939 62.655C38.2452 62.3063 37.9686 61.8924 37.78 61.4369C37.5913 60.9813 37.4941 60.4931 37.4941 60C37.4941 59.5069 37.5913 59.0187 37.78 58.5631C37.9686 58.1076 38.2452 57.6936 38.5939 57.345C38.9425 56.9963 39.3565 56.7198 39.812 56.5311C40.2675 56.3424 40.7558 56.2453 41.2489 56.2453C41.742 56.2453 42.2302 56.3424 42.6858 56.5311C43.1413 56.7198 43.5552 56.9963 43.9039 57.345L52.4989 65.9475L72.3439 46.095C72.6922 45.7458 73.106 45.4687 73.5616 45.2796C74.0172 45.0906 74.5056 44.9933 74.9989 44.9933C75.4921 44.9933 75.9805 45.0906 76.4361 45.2796C76.8917 45.4687 77.3055 45.7458 77.6539 46.095V46.095Z" fill="#6BA1B9"/>
<path d="M77.0473 18.8479L70.1398 11.7679L75.5023 6.53287L80.1673 11.3104L86.8423 11.2279C89.7317 11.1937 92.5988 11.7376 95.2749 12.8275C97.951 13.9175 100.382 15.5316 102.425 17.5748C104.469 19.6181 106.083 22.0492 107.173 24.7253C108.263 27.4015 108.807 30.2685 108.772 33.1579L108.697 39.8329L113.467 44.4979C115.533 46.5167 117.175 48.928 118.296 51.5902C119.416 54.2525 119.994 57.1118 119.994 60.0004C119.994 62.8889 119.416 65.7483 118.296 68.4105C117.175 71.0728 115.533 73.4841 113.467 75.5029L108.69 80.1679L108.772 86.8429C108.807 89.7323 108.263 92.5993 107.173 95.2754C106.083 97.9515 104.469 100.383 102.425 102.426C100.382 104.469 97.951 106.083 95.2749 107.173C92.5988 108.263 89.7317 108.807 86.8423 108.773L80.1673 108.698L75.5023 113.468C73.4836 115.534 71.0722 117.175 68.41 118.296C65.7477 119.417 62.8884 119.994 59.9998 119.994C57.1113 119.994 54.2519 119.417 51.5897 118.296C48.9275 117.175 46.5161 115.534 44.4973 113.468L39.8323 108.69L33.1573 108.773C30.268 108.807 27.4009 108.263 24.7248 107.173C22.0487 106.083 19.6175 104.469 17.5743 102.426C15.531 100.383 13.917 97.9515 12.827 95.2754C11.737 92.5993 11.1931 89.7323 11.2273 86.8429L11.3023 80.1679L6.53232 75.5029C4.46638 73.4841 2.82478 71.0728 1.704 68.4105C0.583214 65.7483 0.00585937 62.8889 0.00585938 60.0004C0.00585937 57.1118 0.583214 54.2525 1.704 51.5902C2.82478 48.928 4.46638 46.5167 6.53232 44.4979L11.3098 39.8329L11.2273 33.1579C11.1931 30.2685 11.737 27.4015 12.827 24.7253C13.917 22.0492 15.531 19.6181 17.5743 17.5748C19.6175 15.5316 22.0487 13.9175 24.7248 12.8275C27.4009 11.7376 30.268 11.1937 33.1573 11.2279L39.8323 11.3029L44.4973 6.53287C46.5161 4.46693 48.9275 2.82533 51.5897 1.70455C54.2519 0.583764 57.1113 0.00640869 59.9998 0.00640869C62.8884 0.00640869 65.7477 0.583764 68.41 1.70455C71.0722 2.82533 73.4836 4.46693 75.5023 6.53287L70.1398 11.7679C68.8195 10.4163 67.2424 9.34226 65.501 8.60899C63.7596 7.87572 61.8893 7.49797 59.9998 7.49797C58.1104 7.49797 56.24 7.87572 54.4987 8.60899C52.7573 9.34226 51.1801 10.4163 49.8598 11.7679L42.9598 18.8479L33.0598 18.7279C31.1712 18.7068 29.2973 19.0633 27.5484 19.7766C25.7995 20.4898 24.2107 21.5455 22.8755 22.8814C21.5403 24.2173 20.4855 25.8066 19.7731 27.5559C19.0608 29.3052 18.7052 31.1792 18.7273 33.0679L18.8473 42.9529L11.7673 49.8604C10.4157 51.1807 9.34171 52.7578 8.60844 54.4992C7.87517 56.2406 7.49743 58.1109 7.49743 60.0004C7.49743 61.8898 7.87517 63.7602 8.60844 65.5016C9.34171 67.2429 10.4157 68.8201 11.7673 70.1404L18.8473 77.0404L18.7273 86.9404C18.7062 88.829 19.0628 90.7029 19.776 92.4518C20.4893 94.2007 21.5449 95.7895 22.8808 97.1247C24.2167 98.4599 25.806 99.5147 27.5553 100.227C29.3046 100.939 31.1787 101.295 33.0673 101.273L42.9523 101.153L49.8598 108.233C51.1801 109.584 52.7573 110.658 54.4987 111.392C56.24 112.125 58.1104 112.503 59.9998 112.503C61.8893 112.503 63.7596 112.125 65.501 111.392C67.2424 110.658 68.8195 109.584 70.1398 108.233L77.0398 101.153L86.9398 101.273C88.8285 101.294 90.7023 100.937 92.4513 100.224C94.2002 99.5109 95.7889 98.4553 97.1242 97.1194C98.4594 95.7835 99.5142 94.1942 100.227 92.4449C100.939 90.6956 101.294 88.8215 101.272 86.9329L101.152 77.0479L108.232 70.1404C109.584 68.8201 110.658 67.2429 111.391 65.5016C112.124 63.7602 112.502 61.8898 112.502 60.0004C112.502 58.1109 112.124 56.2406 111.391 54.4992C110.658 52.7578 109.584 51.1807 108.232 49.8604L101.152 42.9604L101.272 33.0604C101.293 31.1717 100.937 29.2979 100.224 27.5489C99.5104 25.8 98.4548 24.2113 97.1188 22.876C95.7829 21.5408 94.1936 20.486 92.4443 19.7737C90.695 19.0613 88.821 18.7058 86.9323 18.7279L77.0473 18.8479V18.8479Z" fill="#6BA1B9"/>
</g>
<defs>
<clipPath id="clip0_27_5868">
<rect width="120" height="120" fill="white"/>
</clipPath>
</defs>
</svg>
