<svg width="15" height="15" viewBox="0 0 15 15" fill="none" xmlns="http://www.w3.org/2000/svg">
<path fill-rule="evenodd" clip-rule="evenodd" d="M2.01442 0.70765C2.16752 0.554771 2.35136 0.436176 2.55375 0.359725C2.75615 0.283274 2.97248 0.250713 3.18841 0.2642C3.40434 0.277686 3.61493 0.336912 3.80624 0.437952C3.99756 0.538993 4.16521 0.67954 4.2981 0.850282L5.86867 2.86812C6.15654 3.23827 6.25804 3.72041 6.14429 4.17543L5.66568 6.09177C5.64094 6.19103 5.64227 6.295 5.66956 6.39358C5.69685 6.49217 5.74917 6.58202 5.82143 6.65442L7.97123 8.8044C8.04371 8.87681 8.13371 8.92921 8.23246 8.95651C8.33121 8.98381 8.43534 8.98506 8.53472 8.96015L10.45 8.48151C10.6746 8.42536 10.9089 8.421 11.1354 8.46875C11.3618 8.51651 11.5745 8.61512 11.7572 8.75714L13.7749 10.327C14.5003 10.8914 14.5668 11.9633 13.9175 12.6117L13.0128 13.5165C12.3653 14.164 11.3976 14.4484 10.4955 14.1308C8.18664 13.3183 6.09028 11.9964 4.36197 10.2631C2.6289 8.5349 1.3071 6.43869 0.494593 4.12993C0.177853 3.22864 0.462219 2.25997 1.1097 1.61244L2.01442 0.70765Z" fill="white"/>
</svg>
