<svg width="0" height="0" class="hidden">
    <symbol xmlns="http://www.w3.org/2000/svg" viewBox="0 0 120 120" id="patch-check">
    <g clip-path="url(#clip0_27_5868)">
      <path fill-rule="evenodd" clip-rule="evenodd" d="M77.6539 46.095C78.0031 46.4433 78.2802 46.8571 78.4692 47.3127C78.6583 47.7683 78.7556 48.2567 78.7556 48.75C78.7556 49.2432 78.6583 49.7317 78.4692 50.1872C78.2802 50.6428 78.0031 51.0566 77.6539 51.405L55.1539 73.905C54.8055 74.2542 54.3917 74.5313 53.9361 74.7203C53.4805 74.9094 52.9921 75.0067 52.4989 75.0067C52.0056 75.0067 51.5172 74.9094 51.0616 74.7203C50.606 74.5313 50.1922 74.2542 49.8439 73.905L38.5939 62.655C38.2452 62.3063 37.9686 61.8924 37.78 61.4369C37.5913 60.9813 37.4941 60.4931 37.4941 60C37.4941 59.5069 37.5913 59.0187 37.78 58.5631C37.9686 58.1076 38.2452 57.6936 38.5939 57.345C38.9425 56.9963 39.3565 56.7198 39.812 56.5311C40.2675 56.3424 40.7558 56.2452 41.2489 56.2453C41.742 56.2453 42.2302 56.3424 42.6858 56.5311C43.1413 56.7198 43.5552 56.9963 43.9039 57.345L52.4989 65.9475L72.3439 46.095C72.6922 45.7458 73.106 45.4687 73.5616 45.2796C74.0172 45.0906 74.5056 44.9933 74.9989 44.9933C75.4921 44.9933 75.9805 45.0906 76.4361 45.2796C76.8917 45.4687 77.3055 45.7458 77.6539 46.095Z"></path>
      <path d="M77.0473 18.8479L70.1398 11.7679L75.5023 6.53287L80.1673 11.3104L86.8423 11.2279C89.7317 11.1937 92.5987 11.7376 95.2749 12.8275C97.951 13.9175 100.382 15.5316 102.425 17.5748C104.469 19.6181 106.083 22.0492 107.173 24.7253C108.263 27.4015 108.807 30.2685 108.772 33.1579L108.697 39.8329L113.467 44.4979C115.533 46.5167 117.175 48.928 118.296 51.5902C119.416 54.2525 119.994 57.1118 119.994 60.0004C119.994 62.8889 119.416 65.7483 118.296 68.4105C117.175 71.0728 115.533 73.4841 113.467 75.5029L108.69 80.1679L108.772 86.8429C108.807 89.7323 108.263 92.5993 107.173 95.2754C106.083 97.9515 104.469 100.383 102.425 102.426C100.382 104.469 97.951 106.083 95.2749 107.173C92.5987 108.263 89.7317 108.807 86.8423 108.773L80.1673 108.698L75.5023 113.468C73.4836 115.534 71.0722 117.175 68.41 118.296C65.7477 119.417 62.8884 119.994 59.9998 119.994C57.1113 119.994 54.2519 119.417 51.5897 118.296C48.9275 117.175 46.5161 115.534 44.4973 113.468L39.8323 108.69L33.1573 108.773C30.268 108.807 27.4009 108.263 24.7248 107.173C22.0487 106.083 19.6175 104.469 17.5743 102.426C15.531 100.383 13.917 97.9515 12.827 95.2754C11.737 92.5993 11.1931 89.7323 11.2273 86.8429L11.3023 80.1679L6.53232 75.5029C4.46638 73.4841 2.82478 71.0728 1.704 68.4105C0.583214 65.7483 0.00585937 62.8889 0.00585938 60.0004C0.00585937 57.1118 0.583214 54.2525 1.704 51.5902C2.82478 48.928 4.46638 46.5167 6.53232 44.4979L11.3098 39.8329L11.2273 33.1579C11.1931 30.2685 11.737 27.4015 12.827 24.7253C13.917 22.0492 15.531 19.6181 17.5743 17.5748C19.6175 15.5316 22.0487 13.9175 24.7248 12.8275C27.4009 11.7376 30.268 11.1937 33.1573 11.2279L39.8323 11.3029L44.4973 6.53287C46.5161 4.46693 48.9275 2.82533 51.5897 1.70455C54.2519 0.583764 57.1113 0.00640869 59.9998 0.00640869C62.8884 0.00640869 65.7477 0.583764 68.41 1.70455C71.0722 2.82533 73.4836 4.46693 75.5023 6.53287L70.1398 11.7679C68.8195 10.4163 67.2424 9.34226 65.501 8.60899C63.7597 7.87572 61.8893 7.49797 59.9998 7.49797C58.1104 7.49797 56.24 7.87572 54.4986 8.60899C52.7573 9.34226 51.1801 10.4163 49.8598 11.7679L42.9598 18.8479L33.0598 18.7279C31.1712 18.7068 29.2973 19.0633 27.5484 19.7766C25.7995 20.4898 24.2107 21.5455 22.8755 22.8814C21.5403 24.2173 20.4855 25.8066 19.7731 27.5559C19.0608 29.3052 18.7052 31.1792 18.7273 33.0679L18.8473 42.9529L11.7673 49.8604C10.4157 51.1807 9.34171 52.7578 8.60844 54.4992C7.87517 56.2406 7.49743 58.1109 7.49743 60.0004C7.49743 61.8898 7.87517 63.7602 8.60844 65.5015C9.34171 67.2429 10.4157 68.8201 11.7673 70.1404L18.8473 77.0404L18.7273 86.9404C18.7062 88.829 19.0628 90.7029 19.776 92.4518C20.4893 94.2007 21.5449 95.7895 22.8808 97.1247C24.2167 98.4599 25.806 99.5147 27.5553 100.227C29.3046 100.939 31.1787 101.295 33.0673 101.273L42.9523 101.153L49.8598 108.233C51.1801 109.584 52.7573 110.658 54.4986 111.392C56.24 112.125 58.1104 112.503 59.9998 112.503C61.8893 112.503 63.7597 112.125 65.501 111.392C67.2424 110.658 68.8195 109.584 70.1398 108.233L77.0398 101.153L86.9398 101.273C88.8285 101.294 90.7023 100.937 92.4513 100.224C94.2002 99.5109 95.7889 98.4553 97.1242 97.1194C98.4594 95.7835 99.5142 94.1942 100.227 92.4449C100.939 90.6956 101.294 88.8215 101.272 86.9329L101.152 77.0479L108.232 70.1404C109.584 68.8201 110.658 67.2429 111.391 65.5015C112.124 63.7602 112.502 61.8898 112.502 60.0004C112.502 58.1109 112.124 56.2406 111.391 54.4992C110.658 52.7578 109.584 51.1807 108.232 49.8604L101.152 42.9604L101.272 33.0604C101.293 31.1717 100.937 29.2979 100.224 27.5489C99.5104 25.8 98.4548 24.2113 97.1188 22.876C95.7829 21.5408 94.1936 20.486 92.4443 19.7737C90.695 19.0613 88.821 18.7058 86.9323 18.7279L77.0473 18.8479Z"></path>
    </g>
    <defs>
      <clipPath id="clip0_27_5868">
        <rect width="120" height="120" fill="white"></rect>
      </clipPath>
    </defs>
  </symbol>
  <symbol xmlns="http://www.w3.org/2000/svg" viewBox="0 0 70 70" id="arrow-down-bold">
    <path d="M7.15789 23.1569C7.97833 22.3367 9.09093 21.8759 10.251 21.8759C11.4111 21.8759 12.5237 22.3367 13.3441 23.1569L35.0004 44.8131L56.6566 23.1569C57.4818 22.3599 58.5869 21.919 59.734 21.9289C60.8811 21.9389 61.9784 22.399 62.7896 23.2102C63.6008 24.0213 64.0609 25.1186 64.0708 26.2657C64.0808 27.4129 63.6398 28.518 62.8429 29.3431L38.0935 54.0925C37.2731 54.9127 36.1605 55.3734 35.0004 55.3734C33.8403 55.3734 32.7277 54.9127 31.9073 54.0925L7.15789 29.3431C6.33771 28.5227 5.87695 27.4101 5.87695 26.25C5.87695 25.0899 6.33771 23.9773 7.15789 23.1569Z"></path>
  </symbol>
   <symbol xmlns="http://www.w3.org/2000/svg" viewBox="0 0 14 22" id="arrow">
    <path d="M12.5261 0.723606C12.8321 1.02961 13.0039 1.44457 13.0039 1.87726C13.0039 2.30994 12.8321 2.72491 12.5261 3.03091L4.44895 11.1081L12.5261 19.1853C12.8234 19.4931 12.9879 19.9052 12.9841 20.3331C12.9804 20.7609 12.8088 21.1702 12.5063 21.4727C12.2037 21.7753 11.7945 21.9469 11.3666 21.9506C10.9388 21.9543 10.5266 21.7898 10.2188 21.4926L0.987997 12.2618C0.68209 11.9558 0.510241 11.5408 0.510241 11.1081C0.510241 10.6754 0.68209 10.2605 0.987997 9.95445L10.2188 0.723606C10.5248 0.417699 10.9398 0.24585 11.3725 0.24585C11.8052 0.24585 12.2202 0.417699 12.5261 0.723606Z"></path>
  </symbol>
  <symbol xmlns="http://www.w3.org/2000/svg" viewBox="0 0 44 44" id="hotel">
    <g clip-path="url(#clip0_1_2)">
      <g clip-path="url(#clip1_1_2)">
        <path d="M34.1033 33.8814H32.952V9.29408C32.952 8.57937 32.3335 8.00001 31.5705 8.00001H12.2287C11.4657 8.00001 10.8472 8.57937 10.8472 9.29408V33.8814H9.69586C9.31438 33.8814 9.00508 34.1711 9.00508 34.5285V35.6068H34.7941V34.5285C34.7941 34.1711 34.4848 33.8814 34.1033 33.8814ZM16.3734 12.0979C16.3734 11.7406 16.6827 11.4509 17.0642 11.4509H19.3667C19.7482 11.4509 20.0575 11.7406 20.0575 12.0979V14.2547C20.0575 14.612 19.7482 14.9017 19.3667 14.9017H17.0642C16.6827 14.9017 16.3734 14.612 16.3734 14.2547V12.0979ZM16.3734 17.2742C16.3734 16.9169 16.6827 16.6271 17.0642 16.6271H19.3667C19.7482 16.6271 20.0575 16.9169 20.0575 17.2742V19.431C20.0575 19.7883 19.7482 20.078 19.3667 20.078H17.0642C16.6827 20.078 16.3734 19.7883 16.3734 19.431V17.2742ZM19.3667 25.2543H17.0642C16.6827 25.2543 16.3734 24.9646 16.3734 24.6072V22.4505C16.3734 22.0931 16.6827 21.8034 17.0642 21.8034H19.3667C19.7482 21.8034 20.0575 22.0931 20.0575 22.4505V24.6072C20.0575 24.9646 19.7482 25.2543 19.3667 25.2543ZM23.7417 33.8814H20.0575V29.3522C20.0575 28.9948 20.3668 28.7051 20.7483 28.7051H23.0509C23.4324 28.7051 23.7417 28.9948 23.7417 29.3522V33.8814ZM27.4258 24.6072C27.4258 24.9646 27.1165 25.2543 26.735 25.2543H24.4325C24.051 25.2543 23.7417 24.9646 23.7417 24.6072V22.4505C23.7417 22.0931 24.051 21.8034 24.4325 21.8034H26.735C27.1165 21.8034 27.4258 22.0931 27.4258 22.4505V24.6072ZM27.4258 19.431C27.4258 19.7883 27.1165 20.078 26.735 20.078H24.4325C24.051 20.078 23.7417 19.7883 23.7417 19.431V17.2742C23.7417 16.9169 24.051 16.6271 24.4325 16.6271H26.735C27.1165 16.6271 27.4258 16.9169 27.4258 17.2742V19.431ZM27.4258 14.2547C27.4258 14.612 27.1165 14.9017 26.735 14.9017H24.4325C24.051 14.9017 23.7417 14.612 23.7417 14.2547V12.0979C23.7417 11.7406 24.051 11.4509 24.4325 11.4509H26.735C27.1165 11.4509 27.4258 11.7406 27.4258 12.0979V14.2547Z"></path>
      </g>
    </g>
    <defs>
      <clipPath id="clip0_1_2">
        <rect width="27.6416" height="27.6068" fill="white" transform="translate(8.18 8.2)"></rect>
      </clipPath>
      <clipPath id="clip1_1_2">
        <rect width="25.7989" height="27.6068" fill="white" transform="translate(9 8)"></rect>
      </clipPath>
    </defs>
  </symbol>
  <symbol xmlns="http://www.w3.org/2000/svg" viewBox="0 0 17 13" id="mail">
    <path d="M16.3651 11.4238V2.42383C16.3651 1.59383 15.7349 0.923828 14.9542 0.923828H1.77605C0.99533 0.923828 0.365112 1.59383 0.365112 2.42383V11.4238C0.365112 12.2538 0.99533 12.9238 1.77605 12.9238H14.9542C15.7349 12.9238 16.3651 12.2538 16.3651 11.4238ZM15.1329 2.31383C15.4433 2.64383 15.274 2.98383 15.1047 3.15383L11.2857 6.87383L14.9542 10.9338C15.0671 11.0738 15.1423 11.2938 15.0106 11.4438C14.8883 11.6038 14.6061 11.5938 14.4839 11.4938L10.3733 7.76383L8.36041 9.71383L6.35688 7.76383L2.24636 11.4938C2.12408 11.5938 1.84189 11.6038 1.71961 11.4438C1.58792 11.2938 1.66317 11.0738 1.77605 10.9338L5.44448 6.87383L1.62555 3.15383C1.45624 2.98383 1.28692 2.64383 1.59733 2.31383C1.90773 1.98383 2.22755 2.14383 2.49092 2.38383L8.36041 7.42383L14.2393 2.38383C14.5027 2.14383 14.8225 1.98383 15.1329 2.31383V2.31383Z"></path>
  </symbol>
  <symbol xmlns="http://www.w3.org/2000/svg" viewBox="0 0 44 44" id="map">
    <path d="M12.499 18.1678V29.0725L17.6818 25.8391V14.9326L12.499 18.1678ZM19.4094 14.9326V25.8373L24.5922 29.0742V18.1678L19.4094 14.9326ZM18.5456 27.335L12.093 31.3621L10.7714 30.6306V17.6899L11.1774 16.9583L18.0878 12.6447H19.0034L25.456 16.6719L31.9086 12.6447L33.2302 13.3763V26.317L32.8242 27.0486L25.9138 31.3621H24.9982L18.5456 27.335ZM26.3198 18.1678V29.0725L31.5026 25.8391V14.9326L26.3198 18.1678Z"></path>
  </symbol>
  <symbol xmlns="http://www.w3.org/2000/svg" viewBox="0 0 15 15" id="phone">
    <path fill-rule="evenodd" clip-rule="evenodd" d="M2.01442 0.70765C2.16752 0.554771 2.35136 0.436176 2.55375 0.359725C2.75615 0.283274 2.97248 0.250713 3.18841 0.2642C3.40434 0.277686 3.61493 0.336912 3.80624 0.437952C3.99756 0.538993 4.16521 0.67954 4.2981 0.850282L5.86867 2.86812C6.15654 3.23827 6.25804 3.72041 6.14429 4.17543L5.66568 6.09177C5.64094 6.19103 5.64227 6.295 5.66956 6.39358C5.69685 6.49217 5.74917 6.58202 5.82143 6.65442L7.97123 8.8044C8.04371 8.87681 8.13371 8.92921 8.23246 8.95651C8.33121 8.98381 8.43534 8.98506 8.53472 8.96015L10.45 8.48151C10.6746 8.42536 10.9089 8.421 11.1354 8.46875C11.3618 8.51651 11.5745 8.61512 11.7572 8.75714L13.7749 10.327C14.5003 10.8914 14.5668 11.9633 13.9175 12.6117L13.0128 13.5165C12.3653 14.164 11.3976 14.4484 10.4955 14.1308C8.18664 13.3183 6.09028 11.9964 4.36197 10.2631C2.6289 8.5349 1.3071 6.43869 0.494593 4.12993C0.177853 3.22864 0.462219 2.25997 1.1097 1.61244L2.01442 0.70765Z"></path>
  </symbol>
  <symbol xmlns="http://www.w3.org/2000/svg" viewBox="0 0 44 44" id="plane">
    <g clip-path="url(#clip0_1_2)">
      <path d="M31.8349 10.3565C31.0758 10.4339 30.3348 10.6359 29.6416 10.9543L13.3979 18.1873C12.9163 18.4029 12.5835 18.1555 12.1349 17.822C11.3535 17.2487 10.1968 16.4375 9.84276 16.1635C9.28355 15.7356 7.89721 16 8.27994 16.8601L10.3063 21.4056C10.9718 22.8921 14.4313 22.5375 20.4731 19.8469C20.9866 19.6176 21.6553 19.3086 22.2337 19.0506L20.7049 27.1797C20.5082 27.9686 20.7102 28.1905 20.9706 28.0759L21.8679 27.6777C22.3315 27.4706 22.9736 26.7507 23.2968 26.051L27.6822 16.5946C32.0518 14.5559 36.0502 12.5109 35.7547 11.8505C35.407 11.0669 33.8931 10.1643 31.8349 10.3555V10.3565ZM15.6549 11.4512C15.2616 11.4449 14.9235 11.482 14.6917 11.585L13.7944 11.9821C13.535 12.0989 13.5733 12.3962 14.2931 12.7785L17.9141 14.969L21.9338 13.1767L16.852 11.6179C16.4623 11.5093 16.0596 11.4536 15.6549 11.4523V11.4512ZM9.04434 33.6832C8.76238 33.7096 8.50244 33.8467 8.3217 34.0644C8.14097 34.2822 8.05424 34.5627 8.0806 34.8443C8.10697 35.1259 8.24426 35.3855 8.46228 35.566C8.6803 35.7466 8.96119 35.8332 9.24315 35.8068H34.7585C35.0405 35.8068 35.3109 35.695 35.5103 35.4958C35.7096 35.2967 35.8216 35.0266 35.8216 34.745C35.8216 34.4634 35.7096 34.1934 35.5103 33.9942C35.3109 33.7951 35.0405 33.6832 34.7585 33.6832H9.24315C9.20985 33.6817 9.17651 33.6817 9.14321 33.6832C9.10992 33.6817 9.07657 33.6817 9.04328 33.6832H9.04434ZM967.132 1567.99V1570.11H994.774V1567.99H967.132ZM971.385 1573.3V1575.42H990.521V1573.3H971.385ZM967.132 1578.6V1580.73H994.774V1578.6H967.132ZM971.385 1583.91V1586.04H990.521V1583.91H971.385ZM967.132 1589.22V1591.35H994.774V1589.22H967.132Z"></path>
    </g>
    <defs>
      <clipPath id="clip0_1_2">
        <rect width="27.6416" height="27.6068" fill="white" transform="translate(8.18 8.2)"></rect>
      </clipPath>
    </defs>
  </symbol>
  <symbol xmlns="http://www.w3.org/2000/svg" viewBox="0 0 44 44" id="ship">
    <path d="M18.5456 12.5136C18.5456 12.2848 18.6366 12.0654 18.7986 11.9036C18.9606 11.7418 19.1803 11.6509 19.4094 11.6509H24.5922C24.8213 11.6509 25.041 11.7418 25.203 11.9036C25.365 12.0654 25.456 12.2848 25.456 12.5136V15.1018H29.775C30.0041 15.1018 30.2238 15.1927 30.3858 15.3544C30.5478 15.5162 30.6388 15.7357 30.6388 15.9645V22.0414L32.7102 22.9386C32.8204 22.9866 32.9194 23.057 33.0008 23.1454C33.0822 23.2338 33.1443 23.3381 33.183 23.4518C33.2217 23.5655 33.2362 23.686 33.2256 23.8056C33.215 23.9252 33.1795 24.0413 33.1214 24.1464L31.1433 27.7026C30.7736 27.0262 30.2691 26.317 28.9112 26.317C27.4134 26.317 26.9539 27.1815 26.5669 27.9113C26.2835 28.4445 26.04 28.9052 25.456 28.9052C24.8721 28.9052 24.6268 28.4445 24.3452 27.9113C23.9582 27.1797 23.4986 26.317 22.0008 26.317C20.503 26.317 20.0434 27.1815 19.6565 27.9113C19.3749 28.4445 19.1295 28.9052 18.5456 28.9052C17.9617 28.9052 17.7164 28.4445 17.4348 27.9113C17.0478 27.1797 16.5882 26.317 15.0904 26.317C13.7325 26.317 13.228 27.0279 12.8583 27.7026L10.8802 24.1482C10.8212 24.0429 10.7849 23.9265 10.7737 23.8064C10.7625 23.6863 10.7767 23.5652 10.8153 23.4509C10.8539 23.3366 10.916 23.2316 10.9977 23.1428C11.0794 23.054 11.1789 22.9833 11.2897 22.9352L13.3628 22.0397V15.9645C13.3628 15.7357 13.4538 15.5162 13.6158 15.3544C13.7778 15.1927 13.9975 15.1018 14.2266 15.1018H18.5456V12.5136ZM23.7181 19.0461L28.9112 21.2926V16.8272H15.0904V21.2926L20.2836 19.0461C20.8256 18.8115 21.4101 18.6905 22.0008 18.6905C22.5916 18.6905 23.176 18.8115 23.7181 19.0461ZM20.2732 15.1018H23.7284V13.3763H20.2732V15.1018ZM15.182 30.7514C15.8315 31.5278 16.9148 32.3509 18.5301 32.356H18.5594C19.2275 32.3535 19.886 32.1964 20.483 31.897C21.0801 31.5976 21.5996 31.1642 22.0008 30.6306C22.1045 30.7686 22.2133 30.8929 22.3239 31.0102C22.9873 31.7004 24.0031 32.3509 25.4405 32.356H25.2055H25.4698C27.0869 32.3509 28.1701 31.5278 28.8197 30.7514C28.8663 30.6962 28.9095 30.6392 28.9527 30.584C29.0183 30.6582 29.0892 30.7341 29.1635 30.8083C29.9633 31.6072 31.259 32.356 33.2302 32.356C33.4593 32.356 33.679 32.2651 33.841 32.1033C34.003 31.9416 34.094 31.7221 34.094 31.4933C34.094 31.2645 34.003 31.0451 33.841 30.8833C33.679 30.7215 33.4593 30.6306 33.2302 30.6306C31.7462 30.6306 30.8824 30.0854 30.3866 29.5884C30.1075 29.3142 29.8846 28.9884 29.7301 28.6291C29.6713 28.4592 29.5609 28.3118 29.4143 28.2075C29.2676 28.1032 29.0921 28.0471 28.9121 28.0471C28.7321 28.0471 28.5565 28.1032 28.4099 28.2075C28.2633 28.3118 28.1529 28.4592 28.0941 28.6291C27.9483 28.9978 27.7454 29.3413 27.4929 29.6471C27.0627 30.1613 26.4218 30.6306 25.4543 30.6306C24.4886 30.6306 23.8476 30.1613 23.4192 29.6471C23.1687 29.3437 22.967 29.0031 22.8214 28.6377C22.7855 28.5256 22.7269 28.422 22.6491 28.3335C22.5714 28.245 22.4762 28.1734 22.3696 28.1233C22.2629 28.0731 22.1471 28.0454 22.0292 28.0419C21.9114 28.0384 21.7941 28.0591 21.6847 28.1029C21.5658 28.1489 21.4587 28.2208 21.3712 28.3133C21.2836 28.4058 21.2178 28.5166 21.1785 28.6377C21.0328 29.0031 20.8312 29.3436 20.5807 29.6471C20.1523 30.1613 19.5131 30.6306 18.5456 30.6306C17.5782 30.6306 16.9389 30.1613 16.5105 29.6471C16.3261 29.4243 16.1679 29.1812 16.0389 28.9224C16.0073 28.8587 15.9785 28.7936 15.9525 28.7275C15.9179 28.6412 15.8834 28.5515 15.8367 28.4721C15.7311 28.2906 15.5628 28.1538 15.3634 28.0873L15.3547 28.0839C15.1674 28.0227 14.9648 28.0277 14.7808 28.0981C14.5967 28.1685 14.4426 28.2999 14.3441 28.4704C14.3049 28.5411 14.2703 28.6143 14.2404 28.6895C14.2129 28.7584 14.1818 28.8258 14.1471 28.8914C14.0027 29.1471 13.8237 29.3816 13.615 29.5884C13.1209 30.0854 12.2571 30.6306 10.7714 30.6306C10.5423 30.6306 10.3226 30.7215 10.1606 30.8833C9.9986 31.0451 9.9076 31.2645 9.9076 31.4933C9.9076 31.7221 9.9986 31.9416 10.1606 32.1033C10.3226 32.2651 10.5423 32.356 10.7714 32.356C12.7426 32.356 14.0383 31.6072 14.8382 30.81C14.9125 30.7341 14.9833 30.6599 15.0489 30.5857C15.0921 30.6392 15.1353 30.6962 15.182 30.7514Z"></path>
  </symbol>
  <symbol xmlns="http://www.w3.org/2000/svg" viewBox="0 0 44 44" id="traine">
    <path d="M27.0396 10.5006H16.9573C16.6994 10.5006 15.3461 10.5754 14.0746 12.0547C12.8226 13.5098 12.7869 14.943 12.7869 15.1018V27.7549C12.7869 28.365 13.0296 28.9502 13.4616 29.3816C13.8936 29.8131 14.4795 30.0555 15.0904 30.0555H16.2421L13.9387 33.5063H16.6487L17.4169 32.356H26.6308L27.4105 33.5063H30.0629L27.7595 30.0555H28.9112C29.5221 30.0555 30.108 29.8131 30.54 29.3816C30.972 28.9502 31.2147 28.365 31.2147 27.7549V15.1018C31.2158 14.8855 31.1778 13.4522 29.9144 12.0362C28.583 10.5432 27.194 10.5006 27.0396 10.5006ZM19.6973 12.8012H24.3043V15.1018H19.6973V12.8012ZM16.818 27.7549C16.3596 27.7547 15.9201 27.5727 15.5962 27.2489C15.2722 26.9252 15.0902 26.4861 15.0904 26.0283C15.0905 25.5705 15.2728 25.1316 15.597 24.808C15.9212 24.4844 16.3608 24.3027 16.8191 24.3029C17.2775 24.303 17.717 24.485 18.041 24.8088C18.365 25.1326 18.5469 25.5717 18.5467 26.0295C18.5466 26.4872 18.3644 26.9262 18.0402 27.2498C17.716 27.5733 17.2763 27.755 16.818 27.7549ZM27.1836 27.7549C26.7253 27.7547 26.2858 27.5727 25.9618 27.2489C25.6378 26.9252 25.4558 26.4861 25.456 26.0283C25.4562 25.5705 25.6384 25.1316 25.9626 24.808C26.2868 24.4844 26.7264 24.3027 27.1848 24.3029C27.6431 24.303 28.0826 24.485 28.4066 24.8088C28.7306 25.1326 28.9125 25.5717 28.9124 26.0295C28.9122 26.4872 28.73 26.9262 28.4058 27.2498C28.0816 27.5733 27.6419 27.755 27.1836 27.7549ZM28.9112 22.0035H15.0904V17.4023H28.9112V22.0035Z"></path>
  </symbol>
  <symbol xmlns="http://www.w3.org/2000/svg" viewBox="0 0 22 22" id="arrow-down">
    <path d="M2.24951 7.27787C2.50736 7.0201 2.85703 6.87529 3.22163 6.87529C3.58623 6.87529 3.9359 7.0201 4.19376 7.27787L11 14.0841L17.8063 7.27787C18.0656 7.0274 18.4129 6.88881 18.7734 6.89194C19.134 6.89508 19.4788 7.03968 19.7338 7.29462C19.9887 7.54956 20.1333 7.89442 20.1364 8.25494C20.1396 8.61546 20.001 8.96279 19.7505 9.22212L11.9721 17.0005C11.7143 17.2583 11.3646 17.4031 11 17.4031C10.6354 17.4031 10.2857 17.2583 10.0279 17.0005L2.24951 9.22212C1.99173 8.96427 1.84692 8.6146 1.84692 8.25C1.84692 7.8854 1.99173 7.53572 2.24951 7.27787V7.27787Z"></path>
  </symbol>
  <symbol xmlns="http://www.w3.org/2000/svg" viewBox="0 0 14 16" id="calendar">
    <path d="M0.547699 13.8174C0.547699 14.5966 1.1799 15.2288 1.95912 15.2288H12.3096C13.0888 15.2288 13.721 14.5966 13.721 13.8174V5.81929H0.547699V13.8174ZM9.9572 8.05404C9.9572 7.85997 10.116 7.70119 10.3101 7.70119H11.4862C11.6803 7.70119 11.8391 7.85997 11.8391 8.05404V9.23023C11.8391 9.4243 11.6803 9.58309 11.4862 9.58309H10.3101C10.116 9.58309 9.9572 9.4243 9.9572 9.23023V8.05404ZM9.9572 11.8178C9.9572 11.6238 10.116 11.465 10.3101 11.465H11.4862C11.6803 11.465 11.8391 11.6238 11.8391 11.8178V12.994C11.8391 13.1881 11.6803 13.3469 11.4862 13.3469H10.3101C10.116 13.3469 9.9572 13.1881 9.9572 12.994V11.8178ZM6.1934 8.05404C6.1934 7.85997 6.35219 7.70119 6.54626 7.70119H7.72245C7.91652 7.70119 8.0753 7.85997 8.0753 8.05404V9.23023C8.0753 9.4243 7.91652 9.58309 7.72245 9.58309H6.54626C6.35219 9.58309 6.1934 9.4243 6.1934 9.23023V8.05404ZM6.1934 11.8178C6.1934 11.6238 6.35219 11.465 6.54626 11.465H7.72245C7.91652 11.465 8.0753 11.6238 8.0753 11.8178V12.994C8.0753 13.1881 7.91652 13.3469 7.72245 13.3469H6.54626C6.35219 13.3469 6.1934 13.1881 6.1934 12.994V11.8178ZM2.4296 8.05404C2.4296 7.85997 2.58839 7.70119 2.78246 7.70119H3.95864C4.15271 7.70119 4.3115 7.85997 4.3115 8.05404V9.23023C4.3115 9.4243 4.15271 9.58309 3.95864 9.58309H2.78246C2.58839 9.58309 2.4296 9.4243 2.4296 9.23023V8.05404ZM2.4296 11.8178C2.4296 11.6238 2.58839 11.465 2.78246 11.465H3.95864C4.15271 11.465 4.3115 11.6238 4.3115 11.8178V12.994C4.3115 13.1881 4.15271 13.3469 3.95864 13.3469H2.78246C2.58839 13.3469 2.4296 13.1881 2.4296 12.994V11.8178ZM12.3096 2.05548H10.8982V0.644059C10.8982 0.385298 10.6864 0.173584 10.4277 0.173584H9.48673C9.22797 0.173584 9.01625 0.385298 9.01625 0.644059V2.05548H5.25245V0.644059C5.25245 0.385298 5.04074 0.173584 4.78198 0.173584H3.84103C3.58226 0.173584 3.37055 0.385298 3.37055 0.644059V2.05548H1.95912C1.1799 2.05548 0.547699 2.68769 0.547699 3.46691V4.87833H13.721V3.46691C13.721 2.68769 13.0888 2.05548 12.3096 2.05548Z"></path>
  </symbol>
  <symbol xmlns="http://www.w3.org/2000/svg" viewBox="0 0 21 21" id="facebook">
    <g clip-path="url(#clip0_12_2177)">
      <path d="M4.01704 0.204102C1.99406 0.204102 0.365158 1.833 0.365158 3.85598V16.5522C0.365158 18.5752 1.99406 20.2041 4.01704 20.2041H10.8983V12.3854H8.8308V9.57036H10.8983V7.16536C10.8983 5.27586 12.1199 3.54098 14.9339 3.54098C16.0733 3.54098 16.9158 3.65036 16.9158 3.65036L16.8495 6.27912C16.8495 6.27912 15.9903 6.271 15.0527 6.271C14.0379 6.271 13.8752 6.73856 13.8752 7.51476V9.57038H16.9302L16.797 12.3854H13.8752V20.2041H16.7133C18.7363 20.2041 20.3652 18.5752 20.3652 16.5523V3.856C20.3652 1.83302 18.7363 0.204122 16.7133 0.204122H4.01702L4.01704 0.204102Z"></path>
    </g>
    <defs>
      <clipPath id="clip0_12_2177">
        <rect width="20" height="20" transform="translate(0.365112 0.204102)"></rect>
      </clipPath>
    </defs>
  </symbol>
</svg>